<?xml version="1.0" encoding="UTF-8"?>
<svg xmlns="http://www.w3.org/2000/svg" viewBox="0 0 1024 1024" width="1024" height="1024">
<path d="M239.72 23.47C254.94 22.87 270.26 23.38 285.5 23.37C316.17 23.35 346.83 23.44 377.5 23.38C476.17 23.21 574.84 23.25 673.5 23.43C699.83 23.47 726.17 23.46 752.5 23.39C774.16 23.34 796.01 22.83 817.46 26.23C847 30.93 875.5 42.57 900.36 59.1C951.7 93.25 988.3 150.89 994.79 212.5C997.16 235.02 996.18 257.88 996.19 280.5C996.2 314.5 996.26 348.5 996.21 382.5C996.05 485.17 996.15 587.83 996.22 690.5C996.23 714.5 996.2 738.5 996.21 762.5C996.22 782.53 996.73 802.58 993.7 822.44C984.99 879.34 951.63 930.36 904.86 963.4C877.68 982.6 845.41 995.21 812.48 999.78C784.82 1003.61 756.35 1001.97 728.5 1001.96C680.5 1001.95 632.5 1002.04 584.5 1001.96C500.83 1001.81 417.17 1002.01 333.5 1001.96C310.83 1001.95 288.17 1001.99 265.5 1001.95C244.05 1001.91 222.68 1001.94 201.52 997.86C143.07 986.58 89.83 949.36 59.02 898.43C43.39 872.57 33.07 843.42 29.34 813.42C26.39 789.7 27.72 765.35 27.76 741.5C27.81 704.5 27.86 667.5 27.76 630.5C27.65 586.84 28.04 543.16 27.78 499.5C27.42 440.17 27.65 380.83 27.77 321.5C27.81 300.83 27.74 280.17 27.77 259.5C27.8 239.35 27.71 219.46 31.19 199.54C44.02 126.22 96.74 65.11 165.3 37.76C189.12 28.26 214.23 24.49 239.72 23.47ZM439.5 609.39C428.9 600.93 419.82 589.86 410.33 580.17C391.7 561.15 372.93 542.24 354.26 523.25C343.49 512.3 330.76 496.6 317.95 488.54C289.06 470.37 250.47 482.88 234.63 512.15C223.69 532.35 224.65 557.71 237.75 576.74C242.85 584.15 249.71 590.13 256.04 596.46C264.86 605.3 273.61 614.22 282.45 623.05C311.62 652.21 340.66 681.51 369.63 710.87C379.23 720.6 388.87 730.29 398.5 740C407.64 749.2 416.35 758.13 429.49 761.1C455.22 766.93 468.83 752.02 485.04 735.55C503.74 716.57 522.35 697.52 541.08 678.59C623.13 595.63 705.48 512.97 787.07 429.58C810.31 405.84 842.23 383.7 839.38 346.47C838.96 340.98 837.96 335.66 836.14 330.45C833.77 323.66 830.33 317.27 825.97 311.55C821.59 305.8 815.74 300.66 809.52 296.99C803.91 293.68 797.9 291.2 791.54 289.81C761.56 283.26 745.93 298.01 726.93 317.42C719.34 325.17 711.74 332.9 704.11 340.61C644.95 400.45 586.22 460.72 527.01 520.51C506.61 541.11 486.45 561.95 466.05 582.55C457.22 591.45 448.88 601.07 439.5 609.39Z" fill="#121212" fill-rule="evenodd" stroke="#121212" stroke-width="0.25" stroke-linejoin="round"/>
<path d="M0.25 0.25C341.42 0.25 682.58 0.25 1023.75 0.25C1023.75 341.42 1023.75 682.58 1023.75 1023.75C682.58 1023.75 341.42 1023.75 0.25 1023.75C0.25 682.58 0.25 341.42 0.25 0.25ZM239.72 23.47C214.23 24.49 189.12 28.26 165.3 37.76C96.74 65.11 44.02 126.22 31.19 199.54C27.71 219.46 27.8 239.35 27.77 259.5C27.74 280.17 27.81 300.83 27.77 321.5C27.65 380.83 27.42 440.17 27.78 499.5C28.04 543.16 27.65 586.84 27.76 630.5C27.86 667.5 27.81 704.5 27.76 741.5C27.72 765.35 26.39 789.7 29.34 813.42C33.07 843.42 43.39 872.57 59.02 898.43C89.83 949.36 143.07 986.58 201.52 997.86C222.68 1001.94 244.05 1001.91 265.5 1001.95C288.17 1001.99 310.83 1001.95 333.5 1001.96C417.17 1002.01 500.83 1001.81 584.5 1001.96C632.5 1002.04 680.5 1001.95 728.5 1001.96C756.35 1001.97 784.82 1003.61 812.48 999.78C845.41 995.21 877.68 982.6 904.86 963.4C951.63 930.36 984.99 879.34 993.7 822.44C996.73 802.58 996.22 782.53 996.21 762.5C996.2 738.5 996.23 714.5 996.22 690.5C996.15 587.83 996.05 485.17 996.21 382.5C996.26 348.5 996.2 314.5 996.19 280.5C996.18 257.88 997.16 235.02 994.79 212.5C988.3 150.89 951.7 93.25 900.36 59.1C875.5 42.57 847 30.93 817.46 26.23C796.01 22.83 774.16 23.34 752.5 23.39C726.17 23.46 699.83 23.47 673.5 23.43C574.84 23.25 476.17 23.21 377.5 23.38C346.83 23.44 316.17 23.35 285.5 23.37C270.26 23.38 254.94 22.87 239.72 23.47ZM439.5 609.39C448.88 601.07 457.22 591.45 466.05 582.55C486.45 561.95 506.61 541.11 527.01 520.51C586.22 460.72 644.95 400.45 704.11 340.61C711.74 332.9 719.34 325.17 726.93 317.42C745.93 298.01 761.56 283.26 791.54 289.81C797.9 291.2 803.91 293.68 809.52 296.99C815.74 300.66 821.59 305.8 825.97 311.55C830.33 317.27 833.77 323.66 836.14 330.45C837.96 335.66 838.96 340.98 839.38 346.47C842.23 383.7 810.31 405.84 787.07 429.58C705.48 512.97 623.13 595.63 541.08 678.59C522.35 697.52 503.74 716.57 485.04 735.55C468.83 752.02 455.22 766.93 429.49 761.1C416.35 758.13 407.64 749.2 398.5 740C388.87 730.29 379.23 720.6 369.63 710.87C340.66 681.51 311.62 652.21 282.45 623.05C273.61 614.22 264.86 605.3 256.04 596.46C249.71 590.13 242.85 584.15 237.75 576.74C224.65 557.71 223.69 532.35 234.63 512.15C250.47 482.88 289.06 470.37 317.95 488.54C330.76 496.6 343.49 512.3 354.26 523.25C372.93 542.24 391.7 561.15 410.33 580.17C419.82 589.86 428.9 600.93 439.5 609.39Z" fill="#fdfdfd" fill-rule="evenodd" stroke="#fdfdfd" stroke-width="0.25" stroke-linejoin="round"/>
</svg>